<?xml version="1.0" encoding="utf-8"?>
<!-- Generator: Adobe Illustrator 24.0.1, SVG Export Plug-In . SVG Version: 6.00 Build 0)  -->
<svg version="1.1" id="Layer_1" xmlns="http://www.w3.org/2000/svg" xmlns:xlink="http://www.w3.org/1999/xlink" x="0px" y="0px"
	 viewBox="0 0 251.47 293.49" style="enable-background:new 0 0 251.47 293.49;" xml:space="preserve">
<style type="text/css">
	.st0{fill:#FFFFFF;}
</style>
<path d="M106.02,81.43c0-1.14,0.06-2.24-0.02-3.34c-0.09-1.29,0.52-2.12,1.6-2.64c0.79-0.38,1.63-0.64,2.46-0.94
	c0.21-0.08,0.43-0.12,0.65-0.18c0-8.55,0-17.07,0-25.65c-0.73-0.09-1.45-0.17-2.16-0.27c-1.37-0.19-2.73-0.47-4-1.03
	c-0.53-0.23-1.05-0.5-1.52-0.82c-1.61-1.11-2.22-2.68-1.8-4.59c0.31-1.4,0.99-2.62,1.89-3.73c4.52-5.59,9.03-11.19,13.55-16.78
	c5.59-6.92,11.18-13.85,16.77-20.77c0.16-0.19,0.32-0.38,0.54-0.63c0.2,0.23,0.39,0.42,0.55,0.63c6.33,8,12.66,16,19,24.01
	c3.37,4.26,6.74,8.51,10.1,12.77c0.91,1.15,1.69,2.37,2.04,3.83c0.42,1.78-0.05,3.28-1.4,4.5c-1.2,1.09-2.64,1.72-4.17,2.17
	c-0.5,0.15-1.01,0.28-1.53,0.42c0,8.1,0,16.16,0,24.26c0.6,0.12,1.2,0.18,1.76,0.35c0.76,0.24,1.53,0.5,2.23,0.88
	c1.05,0.58,1.54,1.5,1.45,2.76c-0.09,1.22-0.02,2.45-0.02,3.71c0.36,0.07,0.68,0.09,0.99,0.19c0.57,0.18,1.17,0.32,1.69,0.6
	c1.11,0.59,1.67,1.55,1.67,2.83c-0.01,2.36-0.01,4.73,0.01,7.09c0,0.44-0.15,0.74-0.46,1.04c-3.02,2.95-6.03,5.92-9.06,8.85
	c-0.44,0.43-0.58,0.81-0.49,1.44c0.47,3.23,0.86,6.47,1.29,9.71c0.48,3.61,0.96,7.22,1.44,10.83c0.42,3.19,0.84,6.37,1.26,9.56
	c0.43,3.29,0.87,6.57,1.3,9.86c0.42,3.21,0.84,6.42,1.27,9.64c0.43,3.26,0.86,6.52,1.29,9.79c0.42,3.21,0.85,6.42,1.27,9.64
	c0.43,3.26,0.86,6.52,1.29,9.79c0.42,3.21,0.85,6.42,1.27,9.64c0.43,3.26,0.86,6.52,1.29,9.79c0.42,3.21,0.85,6.42,1.27,9.64
	c0.43,3.26,0.86,6.52,1.29,9.79c0.42,3.21,0.85,6.42,1.27,9.64c0.43,3.29,0.87,6.57,1.31,9.86c0.32,2.44,0.64,4.88,0.96,7.32
	c0.03,0.25,0.08,0.49,0.11,0.7c0.85,0.11,1.65,0.15,2.43,0.33c2.38,0.54,4.11,2.02,5.55,3.91c0.73,0.96,1.3,2.01,1.71,3.17
	c1.33,3.74,2.71,7.46,4.07,11.19c0.08,0.23,0.18,0.46,0.3,0.75c0.88-0.25,1.72-0.47,2.56-0.72c3.3-0.99,6.52-2.2,9.54-3.89
	c2.43-1.36,4.67-2.95,6.52-5.06c0.82-0.93,1.53-1.93,2.09-3.03c0.09-0.17,0.2-0.34,0.34-0.58c0.12,0.23,0.21,0.4,0.29,0.57
	c1.71,3.47,4.28,6.18,7.47,8.32c3.21,2.16,6.77,3.49,10.54,4.28c2.12,0.44,4.26,0.71,6.43,0.8c0.34,0.01,0.68,0.05,1.02,0.08
	c0,0.06,0.01,0.13,0.01,0.19c-1.4,0.24-2.8,0.54-4.22,0.72c-3.15,0.41-6.31,0.46-9.48,0.2c-4.11-0.33-8.1-1.19-11.95-2.65
	c-0.48-0.18-0.89-0.2-1.37-0.06c-2.3,0.65-4.66,1.01-7.03,1.32c-4.14,0.55-8.3,0.88-12.46,1.08c-0.09,0-0.18,0.03-0.38,0.06
	c0.17,0.18,0.28,0.3,0.4,0.4c3.75,2.92,7.78,5.34,12.21,7.09c5.04,1.99,10.26,2.98,15.69,2.8c1.98-0.07,3.96-0.27,5.91-0.67
	c0.27-0.05,0.54-0.08,0.84-0.13c0.07,0.28,0.14,0.51,0.22,0.83c-0.42,0.1-0.8,0.21-1.18,0.27c-7.6,1.3-15.25,1.97-22.96,1.79
	c-5.06-0.12-10.08-0.62-15.03-1.74c-4.21-0.96-8.27-2.32-12.03-4.47c-1.23-0.7-2.48-1.32-3.88-1.58c-2.35-0.44-4.66-0.24-6.93,0.44
	c-0.81,0.24-1.6,0.58-2.38,0.93c-5.97,2.75-12.13,4.94-18.48,6.63c-4.42,1.18-8.9,2.1-13.44,2.66c-1.84,0.23-3.7,0.35-5.55,0.51
	c-0.45,0.04-0.89,0.07-1.5,0.11c0.27,0.21,0.41,0.34,0.57,0.44c3.51,2.19,7.33,3.63,11.34,4.55c2.13,0.49,4.29,0.81,6.44,1.18
	c0.26,0.05,0.56,0.03,0.82-0.02c6.76-1.33,13.43-2.98,19.9-5.36c3.33-1.22,6.58-2.64,9.5-4.69c1.58-1.11,2.97-2.4,3.84-4.16
	c0.02-0.04,0.08-0.06,0.15-0.11c0.65,1.22,1.46,2.33,2.4,3.34c2.24,2.41,4.93,4.19,7.87,5.62c3.8,1.85,7.82,3,11.96,3.77
	c3.04,0.56,6.11,0.93,9.2,1.08c0.11,0.01,0.22,0.02,0.52,0.05c-0.27,0.12-0.38,0.18-0.49,0.21c-5.66,1.21-11.36,2.12-17.16,2.3
	c-2.51,0.08-5.03,0.07-7.52-0.32c-2.15-0.33-4.24-0.82-6.13-1.95c-0.26-0.15-0.48-0.18-0.77-0.07c-2.42,0.9-4.95,1.28-7.5,1.58
	c-4.48,0.53-8.98,0.55-13.48,0.4c-2.86-0.09-5.72-0.32-8.58-0.53c-0.92-0.07-1.79,0.03-2.69,0.2c-3.51,0.68-7.04,1.12-10.6,1.43
	c-0.57,0.05-1.16,0.02-1.73,0.02c-1.94,0-3.87,0.07-5.81-0.02c-2.75-0.12-5.46-0.56-7.94-1.83c-0.87-0.44-1.57-0.53-2.51-0.19
	c-2.18,0.79-4.48,1.1-6.78,1.38c-3.35,0.41-6.71,0.54-10.08,0.54c-3.85,0-7.69-0.14-11.52-0.49c-2.2-0.2-4.4-0.41-6.6-0.62
	c-0.11-0.01-0.23-0.04-0.34-0.14c1.27-0.26,2.55-0.52,3.82-0.79c7.05-1.52,14.01-3.35,20.73-6.02c2.43-0.96,4.79-2.07,7.01-3.47
	c0.4-0.25,0.78-0.53,1.13-0.92c-0.23,0.01-0.46,0.02-0.69,0.04c-3.02,0.35-6.03,0.74-9.06,1.04c-3.38,0.34-6.77,0.44-10.17,0.39
	c-5.16-0.08-10.29-0.51-15.32-1.75c-2.79-0.69-5.49-1.62-8.04-2.94c-0.33-0.17-0.69-0.31-1.05-0.4c-5.58-1.42-11.03-1.09-16.41,1.03
	c-1.93,0.76-3.97,1.26-5.98,1.81c-7.13,1.93-14.33,3.55-21.61,4.82c-4.43,0.77-8.88,1.41-13.33,2.01c-3.28,0.44-6.59,0.72-9.92,0.94
	c0.24-0.1,0.48-0.21,0.73-0.29c8.47-2.75,16.7-6.09,24.7-9.99c6.08-2.96,11.97-6.28,17.53-10.14c4.8-3.34,9.29-7.04,13.18-11.44
	c1.8-2.04,3.43-4.21,4.81-6.56c0.1-0.17,0.22-0.33,0.35-0.53c0.13,0.18,0.24,0.31,0.33,0.46c2.64,4.22,5.83,8,9.37,11.48
	c2.5,2.45,5.18,4.68,8,6.76c0.44,0.32,0.84,0.45,1.38,0.32c1-0.25,2.01-0.43,3.05-0.64c0.09-0.24,0.18-0.47,0.26-0.7
	c1.4-4.24,2.82-8.48,4.18-12.74c0.34-1.08,0.97-1.84,1.91-2.41c1.43-0.87,2.99-1.41,4.58-1.9c0.24-0.07,0.48-0.14,0.76-0.22
	c0.16-1.38,0.32-2.75,0.47-4.12c0.34-3.02,0.68-6.04,1.01-9.06c0.32-2.92,0.64-5.84,0.97-8.76c0.33-2.95,0.66-5.89,0.99-8.84
	c0.33-2.92,0.64-5.84,0.97-8.76c0.33-2.95,0.66-5.89,0.99-8.84c0.32-2.9,0.64-5.79,0.96-8.69c0.33-2.97,0.66-5.94,1-8.91
	c0.32-2.9,0.64-5.79,0.96-8.69c0.33-3,0.67-5.99,1-8.99c0.32-2.92,0.64-5.84,0.97-8.76c0.33-2.95,0.66-5.89,0.99-8.84
	c0.32-2.9,0.64-5.79,0.96-8.69c0.33-2.97,0.66-5.94,1-8.91c0.32-2.9,0.64-5.79,0.96-8.69c0.33-2.97,0.66-5.94,0.99-8.91
	c0.32-2.92,0.65-5.84,0.97-8.76c0.06-0.55,0.07-1.11,0.19-1.65c0.11-0.5-0.1-0.78-0.47-1.07c-1.95-1.55-3.88-3.12-5.81-4.69
	c-1.35-1.09-2.69-2.19-4.05-3.26c-0.35-0.28-0.49-0.57-0.49-1.02c0.02-2.44,0.04-4.88-0.01-7.31c-0.02-1.13,0.44-1.91,1.39-2.39
	c0.82-0.41,1.71-0.7,2.58-1.03C105.6,81.54,105.79,81.5,106.02,81.43z M159.26,188.06c-3.25-0.89-6.54-1.46-9.86-1.8
	c-2.27-0.23-4.56-0.39-6.84-0.51c-4.83-0.26-9.65-0.05-14.46,0.41c-3.45,0.33-6.89,0.81-10.29,1.45c-3.55,0.68-7.08,1.46-10.54,2.53
	c-0.68,0.21-0.67,0.21-0.74,0.93c-0.12,1.3-0.25,2.6-0.37,3.9c-0.28,2.85-0.57,5.7-0.86,8.55c-0.27,2.7-0.54,5.4-0.81,8.1
	c-0.28,2.8-0.56,5.6-0.84,8.4c-0.27,2.75-0.54,5.5-0.82,8.25c-0.28,2.77-0.56,5.55-0.84,8.32c-0.23,2.32-0.47,4.65-0.7,6.97
	c-0.1,1.04-0.19,2.08-0.3,3.19c0.29-0.04,0.48-0.07,0.67-0.11c2.81-0.52,5.62-1.1,8.45-1.55c4.47-0.72,8.96-1.2,13.47-1.57
	c4.84-0.4,9.69-0.58,14.54-0.66c5.71-0.1,11.41,0.05,17.11,0.38c0.44,0.03,0.89,0,1.39,0c-0.58-4.02-1.77-7.81-3.28-11.56
	c0.91-0.15,1.69,0,2.46,0.26c2.33,0.78,4.3,2.15,6.2,3.66c2.62,2.09,4.95,4.49,7.18,6.98c0.16,0.18,0.33,0.36,0.49,0.53
	c0.04-0.02,0.09-0.03,0.13-0.05c-2.44-18.1-4.88-36.2-7.31-54.26c-1.3-0.48-2.56-0.68-3.86-0.67
	C158.83,188.11,159.05,188.09,159.26,188.06z M115.9,102.33c-1.52,14.81-3.03,29.51-4.55,44.28c15.24-3.84,30.44-4.71,45.88-1.44
	c-1.78-14.39-3.56-28.75-5.33-43.12c-0.33-0.1-0.59-0.19-0.86-0.26c-4.71-1.34-9.53-1.74-14.39-1.73c-5.82,0-11.59,0.59-17.32,1.6
	C118.2,101.86,117.07,102.1,115.9,102.33z M157.02,248.79c-0.87-0.07-1.69-0.18-2.51-0.21c-4.4-0.17-8.79-0.39-13.19-0.47
	c-5.78-0.11-11.56,0.11-17.33,0.57c-2.65,0.21-5.31,0.43-7.95,0.77c-3.49,0.44-6.96,0.99-10.44,1.51c-1.14,0.17-2.27,0.43-3.41,0.62
	c-1.29,0.22-2.6,0.3-3.86,0.63c-4.51,1.19-7.56,3.92-8.77,8.52c-0.22,0.82-0.36,1.66-0.33,2.55c0.18,0.02,0.33,0.05,0.47,0.05
	c2.77-0.01,5.53-0.03,8.3-0.06c0.27,0,0.56-0.05,0.81-0.15c2.44-0.94,4.83-2,7.02-3.45c1.39-0.92,2.67-1.97,3.64-3.35
	c0.25-0.37,0.46-0.76,0.73-1.2c0.67,1.16,1.47,2.16,2.37,3.06c1.94,1.94,4.22,3.4,6.64,4.65c0.44,0.23,0.88,0.32,1.37,0.32
	c10.96-0.08,21.92-0.16,32.88-0.23c0.22,0,0.45,0,0.74,0C155.86,258.36,157.26,253.8,157.02,248.79z M133.99,4.75
	c-9.15,11.69-18.23,23.27-27.4,34.98c16.05-5.63,32.16-6.94,48.73-2.4C148.17,26.4,141.11,15.63,133.99,4.75z M141.07,45.26
	c-5.84-1.25-22.16,0.81-26.11,3.27c0,7.83,0,15.66,0,23.53c8.62-1.91,17.35-2.25,26.11-2.39C141.07,61.5,141.07,53.4,141.07,45.26z
	 M85.27,270.9c-0.02,0.05-0.03,0.1-0.05,0.14c0.2,0.13,0.4,0.28,0.62,0.4c1.69,0.89,3.36,1.82,5.08,2.64
	c6.77,3.21,13.92,5.15,21.34,6.13c0.73,0.1,1.32,0,1.81-0.6c0.25-0.31,0.59-0.56,0.83-0.87c0.49-0.63,0.93-1.28,1.41-1.94
	c0.04,0.04,0.1,0.09,0.13,0.15c1.02,2.21,2.59,3.99,4.37,5.6c0.38,0.34,0.74,0.43,1.23,0.32c1.52-0.35,3.05-0.63,4.56-0.99
	c5.62-1.36,11-3.35,15.95-6.37c3.22-1.97,6.1-4.33,8.44-7.32c0.13-0.17,0.24-0.35,0.42-0.61c-5.37,0-10.61,0-15.85,0
	c3.08,0.59,6.19,0.85,9.32,1.11c-0.23,0.1-0.47,0.17-0.71,0.21c-3.54,0.6-7.09,1.12-10.68,1.43c-4.49,0.39-8.98,0.55-13.48,0.1
	c-1.98-0.2-3.95-0.49-5.83-1.14c-1.32-0.46-2.6-1.05-3.93-1.6c-0.75,0.29-1.59,0.64-2.44,0.92c-4,1.28-8.13,1.85-12.3,2.09
	c-3.21,0.18-6.43,0.15-9.64,0.22C85.67,270.9,85.47,270.9,85.27,270.9z M202.07,277.95c0-0.03,0.01-0.05,0.01-0.08
	c-0.14-0.04-0.27-0.09-0.41-0.12c-2.61-0.67-5.11-1.64-7.5-2.89c-6.07-3.18-11.34-7.41-16.08-12.33c-0.24-0.25-0.43-0.55-0.61-0.86
	c-1.71-2.96-3.54-5.84-5.53-8.63c-3.14-4.41-6.59-8.56-10.48-12.34c-0.17-0.17-0.36-0.32-0.59-0.52c0.02,0.14,0.01,0.19,0.03,0.22
	c0.13,0.22,0.26,0.43,0.39,0.65c1.25,2.11,2.27,4.31,2.57,6.78c0.3,2.46-0.29,4.54-2.37,6.12c-2.03,1.53-2.78,3.8-1.25,6.32
	c0.16,0.26,0.27,0.63,0.22,0.92c-0.15,0.86-0.3,1.74-0.61,2.55c-0.85,2.22-2.33,4.03-3.99,5.7c-2,2.01-4.27,3.66-6.66,5.16
	c-0.28,0.18-0.57,0.36-0.88,0.56c0.09,0.05,0.12,0.07,0.14,0.06c0.26-0.1,0.51-0.2,0.76-0.32c3.5-1.61,7.09-2.96,10.8-3.98
	c3.94-1.09,7.93-1.79,12.05-1.6c3.55,0.17,6.8,1.13,9.69,3.29c1,0.74,2.13,1.32,3.26,1.87c1.99,0.98,4.11,1.61,6.26,2.12
	c3.04,0.73,6.12,1.13,9.24,1.34C201.04,277.98,201.56,277.95,202.07,277.95z M163.55,83.18c-0.3-0.08-0.52-0.15-0.73-0.2
	c-3.96-0.93-7.96-1.67-12-2.19c-4.49-0.57-9-0.89-13.53-0.91c-5.79-0.04-11.55,0.34-17.28,1.23c-4.52,0.7-8.99,1.65-13.35,3.04
	c-0.47,0.15-0.94,0.33-1.39,0.48c-0.15,1.32-0.09,5.53,0.08,6.07c0.14-0.03,0.29-0.06,0.43-0.1c4.15-1.4,8.41-2.35,12.74-3.02
	c4.2-0.65,8.43-1.02,12.68-1.15c6.54-0.21,13.07,0.05,19.58,0.72c3.63,0.37,7.24,0.84,10.82,1.48c0.63,0.11,1.26,0.22,1.96,0.34
	c0-0.29,0-0.49,0-0.68C163.55,86.6,163.55,84.92,163.55,83.18z M62.09,257.51c-10.02,10.48-21.44,18.65-35.27,23.43
	c0.2,0,0.27,0.01,0.34,0c5.3-0.81,10.51-1.98,15.62-3.59c5.19-1.64,10.2-3.68,14.92-6.4c1.26-0.73,2.47-1.54,3.7-2.31
	c0.04,0.01,0.09,0.02,0.13,0.04c0.12,0.09,0.24,0.19,0.35,0.28c2.65,2.28,5.61,4.06,8.79,5.49c4.07,1.83,8.33,3.06,12.72,3.87
	c4.68,0.87,9.4,1.34,14.16,1.32c0.23,0,0.46-0.02,0.7-0.03c-1.56-0.34-3.12-0.58-4.66-0.9c-7.46-1.56-14.29-4.53-20.39-9.13
	c-4.09-3.08-7.62-6.7-10.44-10.99C62.55,258.26,62.34,257.92,62.09,257.51z M153.76,71.65c0-0.31,0-0.58,0-0.85
	c0-7.36-0.01-14.72,0.01-22.08c0-0.59-0.15-0.95-0.7-1.16c-0.23-0.09-0.45-0.23-0.67-0.33c-1.7-0.77-3.48-1.28-5.29-1.7
	c-0.16-0.04-0.32-0.05-0.51-0.08c0,8.37,0,16.68,0,24.96C148.98,70.82,151.32,71.23,153.76,71.65z M160.82,42.6
	c-0.98-0.33-1.87-0.65-2.78-0.93c-6.48-1.98-13.11-2.99-19.88-3.13c-6.69-0.14-13.3,0.52-19.84,1.93
	c-3.66,0.79-7.27,1.76-10.78,3.09c-0.17,0.06-0.32,0.15-0.57,0.27c1.31,0.6,2.52,1.14,3.72,1.71c0.39,0.19,0.74,0.19,1.15,0.04
	c0.9-0.32,1.81-0.6,2.72-0.88c5.35-1.64,10.83-2.66,16.41-3.05c4.02-0.28,8.04-0.21,12.05,0.24c4.63,0.52,9.18,1.43,13.54,3.12
	c0.35,0.13,0.61,0.1,0.91-0.1c0.97-0.67,1.96-1.31,2.94-1.97C160.54,42.86,160.64,42.75,160.82,42.6z M111.72,79.12
	c15.86-3.4,31.65-3.45,47.56-0.23c-0.04-0.95-0.08-1.8-0.12-2.66c-0.27-0.07-0.48-0.14-0.7-0.18c-3.4-0.66-6.82-1.18-10.27-1.56
	c-3.68-0.41-7.36-0.63-11.05-0.67c-4.42-0.04-8.84,0.17-13.24,0.69c-3.07,0.36-6.11,0.85-9.12,1.55c-1.02,0.24-2.03,0.52-3.05,0.79
	C111.72,77.63,111.72,78.32,111.72,79.12z M131.98,268.42c-1.68-0.2-3.22-0.35-4.75-0.57c-3.14-0.44-6.21-1.18-9.15-2.41
	c-2.47-1.04-4.78-2.35-6.65-4.32c-0.62-0.65-1.14-1.39-1.72-2.11c-0.92,1.98-2.57,3.22-4.4,4.27c-1.6,0.91-3.3,1.59-5.04,2.17
	c-4.89,1.61-9.92,2.51-15.01,3.16c-0.99,0.13-1.99,0.23-2.98,0.34c0.15,0.09,0.29,0.11,0.44,0.11c5.84,0.05,11.65-0.34,17.4-1.38
	c3.36-0.61,6.68-1.42,9.83-2.8c0.32-0.14,0.55-0.1,0.84,0.05c2.17,1.16,4.51,1.82,6.9,2.32c3.25,0.69,6.55,1.01,9.87,1.16
	C128.98,268.47,130.41,268.42,131.98,268.42z M150.32,155.74c0.5,6.02,0.99,11.91,1.48,17.87c1.59,0.16,3.13,0.41,4.74,0.44
	c-0.63-6.06-1.25-12.02-1.88-18.03C153.21,155.94,151.84,155.84,150.32,155.74z M153.81,290.05c3.37,0.09,6.76-0.05,10.13-0.47
	c4.17-0.52,8.27-1.33,12.21-2.85c0.33-0.13,0.59-0.13,0.91,0.05c1.83,0.98,3.79,1.59,5.8,2.04c2.9,0.66,5.85,0.91,8.81,1.03
	c1.12,0.05,2.24,0.01,3.36,0.01c-1.97-0.32-3.94-0.56-5.89-0.9c-3.03-0.54-5.96-1.39-8.65-2.94c-1.27-0.73-2.44-1.6-3.31-2.8
	c-0.38-0.51-0.67-1.09-1.03-1.7c-0.89,1.78-2.34,2.94-4.01,3.87c-0.68,0.38-1.38,0.73-2.09,1.03c-3.7,1.56-7.6,2.41-11.55,3.01
	C156.94,289.66,155.37,289.84,153.81,290.05z M93.98,290.54c0.01,0.03,0.02,0.05,0.03,0.08c0.2,0,0.4,0,0.6,0
	c4.2,0.01,8.38-0.27,12.53-0.93c3.05-0.49,6.06-1.17,8.93-2.37c0.35-0.15,0.61-0.09,0.91,0.07c1.31,0.69,2.71,1.18,4.14,1.59
	c3.56,1.03,7.22,1.48,10.91,1.78c0.24,0.02,0.49,0,0.73,0c-1.49-0.32-2.97-0.57-4.44-0.9c-2.71-0.6-5.32-1.48-7.71-2.92
	c-1.66-0.99-3.13-2.19-4.12-3.89c-0.09-0.16-0.18-0.32-0.32-0.57c-0.88,1.7-2.27,2.71-3.8,3.55c-0.44,0.24-0.89,0.46-1.35,0.66
	c-3.86,1.67-7.93,2.52-12.05,3.16C97.31,290.12,95.64,290.32,93.98,290.54z M185.34,262.66c0.01-0.07,0.04-0.14,0.03-0.21
	c-0.5-2.59-1.3-5.06-2.83-7.24c-1.21-1.73-2.75-3.06-4.81-3.69c-0.48-0.15-0.98-0.31-1.59-0.23c0.13,0.21,0.21,0.33,0.29,0.45
	c0.94,1.34,1.87,2.68,2.81,4.01c1.66,2.34,3.51,4.53,5.46,6.63C184.87,262.56,185.01,262.81,185.34,262.66z M218.47,263.88
	c-2.41-1.46-4.27-3.47-5.95-5.75c-0.51,1.15-1.28,1.93-2.15,2.62c-1.26,1-2.66,1.78-4.09,2.52c-0.16,0.08-0.31,0.18-0.46,0.28
	C210.08,262.51,214.28,262.72,218.47,263.88z"/>
<path d="M207.1,197.13c0.91-0.21,1.71-0.42,2.51-0.57c2.63-0.49,5.28-0.72,7.95-0.49c2.41,0.21,4.7,0.81,6.73,2.19
	c1.58,1.07,2.74,2.5,3.51,4.23c0.1,0.23,0.2,0.45,0.32,0.72c0.11-0.05,0.2-0.07,0.27-0.13c4.35-3,9.04-3.55,13.99-1.84
	c3.26,1.12,6.02,3.07,8.53,5.41c0.03,0.03,0.04,0.08,0.08,0.21c-0.27-0.14-0.48-0.25-0.69-0.37c-2.52-1.39-5.15-2.49-7.97-3.1
	c-2.13-0.46-4.28-0.59-6.44-0.17c-3.31,0.65-5.81,2.51-7.67,5.28c-0.14,0.21-0.28,0.42-0.42,0.62c-0.02,0.03-0.08,0.04-0.09,0.04
	c-0.3-0.97-0.53-1.97-0.92-2.91c-1.24-2.99-3.46-5.07-6.29-6.53c-2.28-1.18-4.72-1.85-7.26-2.13
	C211.27,197.36,209.26,197.28,207.1,197.13z"/>
<path d="M27.37,190.04c1.28-0.68,2.55-1.39,3.85-2.04c2.64-1.31,5.35-2.43,8.26-3c0.96-0.19,1.94-0.31,2.91-0.33
	c1.56-0.03,3.05,0.31,4.32,1.36c0.1-0.11,0.19-0.19,0.26-0.29c2.08-3.16,5.04-4.97,8.72-5.67c3.08-0.58,6.1-0.22,9.1,0.56
	c0.72,0.19,1.43,0.41,2.14,0.62c-0.01,0.05-0.01,0.11-0.02,0.16c-0.28,0-0.56,0-0.84,0c-3.26-0.02-6.47,0.36-9.58,1.38
	c-1.37,0.45-2.66,1.06-3.84,1.89c-2.42,1.71-3.71,4.03-3.88,6.98c-0.01,0.15-0.03,0.3-0.04,0.45c0,0.02-0.03,0.03-0.06,0.07
	c-0.05-0.03-0.13-0.05-0.17-0.09c-2.09-2.18-4.73-3.27-7.65-3.72c-3.46-0.54-6.86-0.09-10.21,0.84c-1.06,0.29-2.1,0.64-3.16,0.96
	C27.43,190.13,27.4,190.08,27.37,190.04z"/>
<path d="M210.78,172.23c3.77-0.31,7.27,0.53,10.5,2.5c2.24,1.37,4.65,3.77,5.64,5.6c-0.34-0.2-0.58-0.34-0.82-0.49
	c-2.35-1.51-4.8-2.83-7.45-3.76c-1.23-0.43-2.49-0.78-3.8-0.91c-2.31-0.23-4.35,0.23-5.87,2.29c-0.07-0.16-0.13-0.26-0.14-0.36
	c-0.26-2.68-1.56-4.85-3.37-6.74c-1.91-1.99-4.23-3.38-6.73-4.48c-0.8-0.35-1.63-0.65-2.45-0.97c-0.11-0.04-0.21-0.1-0.29-0.2
	c1.25-0.02,2.46,0.18,3.66,0.42c2.35,0.47,4.61,1.21,6.68,2.44c1.81,1.08,3.28,2.47,4.26,4.36
	C210.63,172.04,210.7,172.12,210.78,172.23z"/>
<path d="M44.55,165.86c-1.56-1.04-2.97-2.05-4.44-2.95c-1.7-1.04-3.5-1.88-5.48-2.22c-1.52-0.26-3.01-0.18-4.31,0.81
	c-0.14,0.11-0.27,0.23-0.4,0.34c-0.11,0.09-0.21,0.19-0.39,0.35c-0.02-0.21-0.05-0.33-0.05-0.45c-0.02-2.21-0.91-4.09-2.26-5.78
	c-1.72-2.14-3.94-3.63-6.36-4.85c-0.33-0.17-0.66-0.33-0.96-0.61c0.23,0.05,0.46,0.09,0.68,0.15c2.41,0.63,4.77,1.39,6.95,2.63
	c0.48,0.27,0.95,0.56,1.39,0.9c1.44,1.1,2.52,2.39,2.16,4.44c0.52-0.1,0.98-0.21,1.44-0.28c3.03-0.43,5.72,0.37,8.07,2.31
	C42.29,162.06,43.51,163.81,44.55,165.86z"/>
<path d="M206.29,59.39c-9.77,0.68-19.36,1.35-29.06,2.02c0-0.63,0-1.2,0-1.77c0-0.55,0-1.1,0-1.64
	C177.85,57.85,204.88,59.13,206.29,59.39z"/>
<path d="M201.93,38.74c-8.25,4.57-16.49,9.15-24.82,13.77c-0.49-1.04-0.97-2.06-1.49-3.16c8.77-3.6,17.5-7.19,26.23-10.77
	C201.88,38.63,201.91,38.69,201.93,38.74z"/>
<path d="M92.95,163.07c-0.29-0.14-0.57-0.28-0.86-0.41c-2.12-1.01-4.32-1.78-6.65-2.11c-1.5-0.21-3-0.23-4.48,0.2
	c-1.4,0.4-2.55,1.16-3.46,2.29c-0.12,0.15-0.25,0.31-0.48,0.61c0-0.43,0.02-0.71,0-0.99c-0.11-1.64-0.84-2.98-2.02-4.09
	c-1.41-1.32-3.13-2.1-4.96-2.6c-1.54-0.42-3.13-0.7-4.82-1.07c0.44,0,0.76,0,1.09,0c2.44,0.02,4.88,0.13,7.25,0.78
	c0.96,0.26,1.9,0.65,2.79,1.1c1.09,0.56,1.84,1.47,2.04,2.74c0.01,0.07,0.04,0.14,0.06,0.21c0.01,0.02,0.03,0.03,0.07,0.06
	c0.26-0.22,0.51-0.47,0.79-0.68c1.45-1.08,3.1-1.38,4.86-1.15c1.28,0.17,2.48,0.62,3.63,1.2c1.94,0.99,3.65,2.29,5.25,3.74
	C93.02,162.97,92.98,163.02,92.95,163.07z"/>
<path d="M175.73,70.21c0.47-1.04,0.91-2.02,1.38-3.06c8.37,4.6,16.68,9.16,24.99,13.71c-0.02,0.05-0.05,0.1-0.07,0.15
	C193.28,77.42,184.53,73.82,175.73,70.21z"/>
<path class="st0" d="M159.26,188.06c-0.21,0.02-0.42,0.05-0.63,0.08c1.3-0.01,2.56,0.19,3.86,0.67c2.43,18.06,4.87,36.16,7.31,54.26
	c-0.04,0.02-0.09,0.03-0.13,0.05c-0.17-0.18-0.33-0.35-0.49-0.53c-2.23-2.5-4.56-4.89-7.18-6.98c-1.89-1.51-3.87-2.88-6.2-3.66
	c-0.77-0.26-1.54-0.41-2.46-0.26c1.5,3.75,2.7,7.54,3.28,11.56c-0.5,0-0.95,0.02-1.39,0c-5.7-0.33-11.4-0.47-17.11-0.38
	c-4.85,0.08-9.7,0.27-14.54,0.66c-4.51,0.37-9.01,0.85-13.47,1.57c-2.83,0.46-5.63,1.03-8.45,1.55c-0.19,0.04-0.39,0.06-0.67,0.11
	c0.1-1.11,0.19-2.15,0.3-3.19c0.23-2.33,0.47-4.65,0.7-6.97c0.28-2.77,0.56-5.55,0.84-8.32c0.27-2.75,0.54-5.5,0.82-8.25
	c0.28-2.8,0.56-5.6,0.84-8.4c0.27-2.7,0.54-5.4,0.81-8.1c0.28-2.85,0.57-5.7,0.86-8.55c0.13-1.3,0.25-2.6,0.37-3.9
	c0.07-0.71,0.06-0.72,0.74-0.93c3.46-1.07,6.99-1.85,10.54-2.53c3.41-0.65,6.84-1.12,10.29-1.45c4.81-0.46,9.63-0.67,14.46-0.41
	c2.28,0.12,4.57,0.28,6.84,0.51C152.72,186.6,156.01,187.17,159.26,188.06z M112.53,211.01c-0.63,6.12-1.25,12.15-1.88,18.28
	c1.69-0.14,3.25-0.27,4.84-0.4c0.46-6.19,0.92-12.31,1.38-18.48C115.38,210.62,113.99,210.81,112.53,211.01z M145.01,233.48
	c-0.12-0.38-0.18-0.68-0.3-0.95c-0.19-0.46-0.51-0.82-1.04-0.87c-1.19-0.11-2.3,0.18-3.32,0.76c-0.85,0.48-1.34,1.26-1.26,2.24
	c0.06,0.79,0.23,1.59,0.45,2.35c0.26,0.91,0.95,1.38,1.92,1.41c0.35,0.01,0.71-0.02,1.04-0.1c0.58-0.14,1.14-0.33,1.73-0.5
	c0.14,0.21,0.25,0.4,0.38,0.58c0.56,0.73,1.28,1.03,2.19,0.8c0.29-0.07,0.6-0.16,0.84-0.32c0.4-0.28,0.83-0.28,1.29-0.29
	c0.52-0.01,1.06-0.04,1.56-0.18c0.86-0.23,1.2-0.92,0.91-1.76c-0.13-0.4-0.36-0.76-0.56-1.16c-0.49,0.27-0.88,0.54-1.32,0.72
	c-0.43,0.18-0.9,0.35-1.36,0.39c-0.81,0.06-1.22-0.47-1.09-1.27c0.05-0.3,0.08-0.6,0.07-0.9c-0.04-0.79-0.49-1.18-1.29-1.11
	C145.57,233.35,145.31,233.43,145.01,233.48z M151.05,226.24c0.54,0.09,0.55-0.23,0.51-0.54c-0.14-1.24-0.24-2.5-0.47-3.73
	c-0.27-1.41-0.77-2.75-1.66-3.92c-0.89-1.16-2.07-1.84-3.54-1.85c-0.74,0-1.48,0.19-2.22,0.33c-1.11,0.21-1.6,1.05-1.88,2.03
	c-0.22,0.76-0.03,1.46,0.52,2.01c0.35,0.35,0.75,0.7,1.2,0.88c0.94,0.39,1.93,0.69,2.9,1.01
	C148.45,223.11,150.19,224.11,151.05,226.24z M148.48,229.62c0-1.29-0.22-2.4-0.93-3.36c-1.04-1.43-2.95-1.52-4.13-0.2
	c-0.83,0.93-0.79,1.93,0.14,2.77c0.64,0.58,1.41,0.94,2.25,1.24C146.59,229.42,147.39,228.85,148.48,229.62z M153.8,226.89
	c0.58,0.47,1.13,0.71,1.73,0.79c0.82,0.12,1.47-0.19,1.94-0.86c0.31-0.44,0.26-1.28-0.09-1.77c-0.3-0.42-0.8-0.59-1.41-0.39
	c-0.47,0.15-0.91,0.38-1.36,0.57C154.67,225.98,154.6,226.59,153.8,226.89z M140.54,228.07c-0.58-0.5-0.69-1.04-0.4-1.65
	c-0.78-0.04-1.35,0.09-1.86,0.38c-0.72,0.42-1.01,1.01-0.86,1.83c0.12,0.69,0.59,1.09,1.22,1.3c0.47,0.16,0.97-0.13,1.34-0.74
	C140.19,228.86,140.34,228.48,140.54,228.07z"/>
<path class="st0" d="M115.9,102.33c1.17-0.23,2.3-0.47,3.43-0.67c5.73-1.01,11.5-1.6,17.32-1.6c4.86,0,9.69,0.39,14.39,1.73
	c0.26,0.07,0.52,0.16,0.86,0.26c1.78,14.36,3.55,28.73,5.33,43.12c-15.43-3.28-30.64-2.4-45.88,1.44
	C112.87,131.85,114.37,117.15,115.9,102.33z M120.74,115c-0.24,1.05-1.28,18.29-1.13,18.86c1.55-0.29,3.09-0.57,4.7-0.87
	c0.23-6.13,0.46-12.22,0.69-18.38C123.49,114.74,122.1,114.87,120.74,115z"/>
<path class="st0" d="M157.02,248.79c0.24,5.01-1.16,9.58-2.83,14.12c-0.29,0-0.52,0-0.74,0c-10.96,0.08-21.92,0.15-32.88,0.23
	c-0.49,0-0.93-0.09-1.37-0.32c-2.42-1.25-4.7-2.71-6.64-4.65c-0.91-0.91-1.7-1.9-2.37-3.06c-0.26,0.44-0.47,0.84-0.73,1.2
	c-0.96,1.39-2.24,2.43-3.64,3.35c-2.19,1.45-4.58,2.51-7.02,3.45c-0.25,0.1-0.54,0.15-0.81,0.15c-2.77,0.03-5.53,0.04-8.3,0.06
	c-0.14,0-0.29-0.03-0.47-0.05c-0.03-0.9,0.12-1.73,0.33-2.55c1.21-4.6,4.27-7.33,8.77-8.52c1.25-0.33,2.57-0.41,3.86-0.63
	c1.14-0.19,2.27-0.45,3.41-0.62c3.48-0.52,6.95-1.07,10.44-1.51c2.64-0.33,5.3-0.56,7.95-0.77c5.77-0.46,11.55-0.68,17.33-0.57
	c4.4,0.09,8.79,0.3,13.19,0.47C155.33,248.61,156.15,248.71,157.02,248.79z"/>
<path class="st0" d="M133.99,4.75c7.12,10.88,14.17,21.65,21.33,32.58c-16.57-4.55-32.68-3.24-48.73,2.4
	C115.77,28.02,124.84,16.44,133.99,4.75z"/>
<path class="st0" d="M141.07,45.26c0,8.14,0,16.24,0,24.41c-8.77,0.14-17.49,0.48-26.11,2.39c0-7.87,0-15.7,0-23.53
	C118.91,46.08,135.23,44.02,141.07,45.26z"/>
<path class="st0" d="M85.27,270.9c0.2,0,0.39,0,0.59,0c3.22-0.06,6.44-0.03,9.64-0.22c4.17-0.24,8.3-0.8,12.3-2.09
	c0.86-0.28,1.69-0.63,2.44-0.92c1.34,0.55,2.61,1.14,3.93,1.6c1.88,0.65,3.85,0.94,5.83,1.14c4.49,0.44,8.98,0.28,13.48-0.1
	c3.58-0.31,7.13-0.82,10.68-1.43c0.24-0.04,0.48-0.11,0.71-0.21c-3.13-0.26-6.24-0.52-9.32-1.11c5.24,0,10.48,0,15.85,0
	c-0.18,0.27-0.29,0.45-0.42,0.61c-2.34,2.98-5.22,5.35-8.44,7.32c-4.95,3.02-10.33,5.01-15.95,6.37c-1.51,0.37-3.04,0.64-4.56,0.99
	c-0.49,0.11-0.85,0.02-1.23-0.32c-1.79-1.61-3.35-3.39-4.37-5.6c-0.03-0.06-0.09-0.1-0.13-0.15c-0.48,0.66-0.92,1.31-1.41,1.94
	c-0.24,0.32-0.58,0.56-0.83,0.87c-0.48,0.59-1.07,0.69-1.81,0.6c-7.42-0.98-14.56-2.92-21.34-6.13c-1.72-0.82-3.39-1.75-5.08-2.64
	c-0.22-0.11-0.41-0.26-0.62-0.4C85.24,270.99,85.26,270.94,85.27,270.9z"/>
<path class="st0" d="M202.07,277.95c-0.51,0-1.02,0.03-1.53,0c-3.11-0.21-6.2-0.61-9.24-1.34c-2.15-0.51-4.27-1.14-6.26-2.12
	c-1.12-0.55-2.26-1.13-3.26-1.87c-2.89-2.15-6.14-3.12-9.69-3.29c-4.11-0.19-8.11,0.51-12.05,1.6c-3.71,1.03-7.3,2.38-10.8,3.98
	c-0.25,0.11-0.51,0.21-0.76,0.32c-0.02,0.01-0.04-0.02-0.14-0.06c0.32-0.2,0.6-0.38,0.88-0.56c2.39-1.5,4.66-3.16,6.66-5.16
	c1.66-1.67,3.14-3.48,3.99-5.7c0.31-0.81,0.46-1.69,0.61-2.55c0.05-0.29-0.07-0.66-0.22-0.92c-1.53-2.52-0.77-4.78,1.25-6.32
	c2.08-1.58,2.67-3.66,2.37-6.12c-0.3-2.47-1.32-4.67-2.57-6.78c-0.13-0.22-0.26-0.43-0.39-0.65c-0.02-0.03-0.01-0.08-0.03-0.22
	c0.23,0.2,0.42,0.35,0.59,0.52c3.88,3.78,7.33,7.93,10.48,12.34c1.99,2.78,3.82,5.66,5.53,8.63c0.17,0.3,0.37,0.61,0.61,0.86
	c4.73,4.92,10,9.15,16.08,12.33c2.39,1.25,4.89,2.22,7.5,2.89c0.14,0.03,0.27,0.08,0.41,0.12
	C202.07,277.9,202.07,277.92,202.07,277.95z"/>
<path class="st0" d="M163.55,83.18c0,1.74,0,3.42,0,5.1c0,0.2,0,0.4,0,0.68c-0.7-0.12-1.33-0.23-1.96-0.34
	c-3.59-0.64-7.2-1.11-10.82-1.48c-6.51-0.67-13.04-0.93-19.58-0.72c-4.25,0.13-8.48,0.5-12.68,1.15c-4.33,0.67-8.58,1.62-12.74,3.02
	c-0.14,0.05-0.29,0.07-0.43,0.1c-0.17-0.53-0.23-4.74-0.08-6.07c0.44-0.15,0.91-0.33,1.39-0.48c4.36-1.39,8.83-2.34,13.35-3.04
	c5.73-0.89,11.49-1.27,17.28-1.23c4.53,0.03,9.04,0.34,13.53,0.91c4.04,0.52,8.04,1.26,12,2.19
	C163.04,83.03,163.25,83.1,163.55,83.18z"/>
<path class="st0" d="M62.09,257.51c0.25,0.4,0.46,0.74,0.68,1.08c2.82,4.29,6.35,7.9,10.44,10.99c6.1,4.6,12.93,7.57,20.39,9.13
	c1.54,0.32,3.1,0.57,4.66,0.9c-0.23,0.01-0.46,0.03-0.7,0.03c-4.76,0.02-9.48-0.45-14.16-1.32c-4.39-0.82-8.65-2.04-12.72-3.87
	c-3.18-1.43-6.14-3.2-8.79-5.49c-0.11-0.1-0.23-0.19-0.35-0.28c-0.04-0.03-0.09-0.03-0.13-0.04c-1.24,0.78-2.44,1.59-3.7,2.31
	c-4.72,2.72-9.73,4.77-14.92,6.4c-5.11,1.61-10.32,2.78-15.62,3.59c-0.07,0.01-0.15,0-0.34,0
	C40.64,276.17,52.07,267.99,62.09,257.51z"/>
<path class="st0" d="M153.76,71.65c-2.44-0.42-4.78-0.82-7.16-1.23c0-8.29,0-16.59,0-24.96c0.19,0.03,0.36,0.04,0.51,0.08
	c1.81,0.42,3.59,0.93,5.29,1.7c0.23,0.1,0.44,0.25,0.67,0.33c0.55,0.21,0.7,0.57,0.7,1.16c-0.02,7.36-0.01,14.72-0.01,22.08
	C153.76,71.07,153.76,71.33,153.76,71.65z"/>
<path class="st0" d="M160.82,42.6c-0.18,0.15-0.28,0.26-0.4,0.34c-0.98,0.66-1.97,1.3-2.94,1.97c-0.3,0.2-0.56,0.24-0.91,0.1
	c-4.37-1.68-8.91-2.59-13.54-3.12c-4.01-0.45-8.03-0.52-12.05-0.24c-5.58,0.39-11.06,1.41-16.41,3.05
	c-0.91,0.28-1.82,0.56-2.72,0.88c-0.41,0.15-0.76,0.15-1.15-0.04c-1.2-0.57-2.41-1.11-3.72-1.71c0.25-0.12,0.4-0.21,0.57-0.27
	c3.51-1.33,7.12-2.3,10.78-3.09c6.54-1.41,13.15-2.07,19.84-1.93c6.77,0.14,13.4,1.15,19.88,3.13
	C158.95,41.95,159.84,42.27,160.82,42.6z"/>
<path class="st0" d="M111.72,79.12c0-0.8,0-1.49,0-2.28c1.02-0.27,2.03-0.56,3.05-0.79c3.01-0.7,6.05-1.19,9.12-1.55
	c4.4-0.52,8.81-0.73,13.24-0.69c3.69,0.04,7.38,0.27,11.05,0.67c3.45,0.38,6.87,0.9,10.27,1.56c0.22,0.04,0.43,0.11,0.7,0.18
	c0.04,0.87,0.08,1.71,0.12,2.66C143.37,75.67,127.57,75.72,111.72,79.12z"/>
<path class="st0" d="M131.98,268.42c-1.57,0-3,0.05-4.43-0.01c-3.32-0.15-6.61-0.47-9.87-1.16c-2.39-0.51-4.73-1.17-6.9-2.32
	c-0.29-0.15-0.52-0.19-0.84-0.05c-3.15,1.38-6.46,2.19-9.83,2.8c-5.75,1.05-11.56,1.44-17.4,1.38c-0.15,0-0.29-0.02-0.44-0.11
	c0.99-0.11,1.99-0.22,2.98-0.34c5.09-0.64,10.12-1.55,15.01-3.16c1.74-0.57,3.44-1.26,5.04-2.17c1.84-1.04,3.49-2.29,4.4-4.27
	c0.58,0.72,1.11,1.46,1.72,2.11c1.87,1.97,4.18,3.28,6.65,4.32c2.93,1.23,6,1.97,9.15,2.41
	C128.77,268.07,130.3,268.22,131.98,268.42z"/>
<path class="st0" d="M150.32,155.74c1.52,0.1,2.89,0.19,4.34,0.29c0.63,6.01,1.24,11.97,1.88,18.03c-1.61-0.03-3.15-0.28-4.74-0.44
	C151.3,167.66,150.81,161.76,150.32,155.74z"/>
<path class="st0" d="M153.81,290.05c1.57-0.21,3.14-0.4,4.7-0.64c3.95-0.61,7.85-1.46,11.55-3.01c0.72-0.3,1.42-0.65,2.09-1.03
	c1.66-0.93,3.12-2.09,4.01-3.87c0.37,0.61,0.65,1.19,1.03,1.7c0.87,1.2,2.04,2.07,3.31,2.8c2.69,1.55,5.62,2.4,8.65,2.94
	c1.95,0.35,3.92,0.58,5.89,0.9c-1.12,0-2.24,0.04-3.36-0.01c-2.96-0.12-5.91-0.37-8.81-1.03c-2.01-0.46-3.97-1.07-5.8-2.04
	c-0.32-0.17-0.58-0.17-0.91-0.05c-3.94,1.52-8.04,2.33-12.21,2.85C160.57,290,157.18,290.14,153.81,290.05z"/>
<path class="st0" d="M93.98,290.54c1.66-0.22,3.33-0.41,4.99-0.67c4.12-0.64,8.2-1.49,12.05-3.16c0.46-0.2,0.91-0.42,1.35-0.66
	c1.54-0.84,2.93-1.85,3.8-3.55c0.14,0.24,0.23,0.41,0.32,0.57c0.99,1.7,2.46,2.9,4.12,3.89c2.39,1.43,5,2.31,7.71,2.92
	c1.47,0.33,2.95,0.58,4.44,0.9c-0.24,0-0.49,0.02-0.73,0c-3.68-0.3-7.34-0.76-10.91-1.78c-1.43-0.41-2.82-0.9-4.14-1.59
	c-0.31-0.16-0.57-0.22-0.91-0.07c-2.87,1.2-5.88,1.88-8.93,2.37c-4.15,0.67-8.33,0.94-12.53,0.93c-0.2,0-0.4,0-0.6,0
	C94,290.59,93.99,290.56,93.98,290.54z"/>
<path class="st0" d="M185.34,262.66c-0.33,0.15-0.47-0.1-0.63-0.27c-1.95-2.1-3.8-4.29-5.46-6.63c-0.95-1.33-1.88-2.67-2.81-4.01
	c-0.08-0.12-0.16-0.24-0.29-0.45c0.62-0.08,1.11,0.08,1.59,0.23c2.06,0.63,3.6,1.96,4.81,3.69c1.53,2.18,2.33,4.66,2.83,7.24
	C185.38,262.52,185.35,262.59,185.34,262.66z"/>
<path class="st0" d="M218.47,263.88c-4.19-1.16-8.39-1.37-12.66-0.33c0.15-0.09,0.3-0.19,0.46-0.28c1.43-0.74,2.82-1.52,4.09-2.52
	c0.87-0.69,1.64-1.47,2.15-2.62C214.2,260.4,216.06,262.41,218.47,263.88z"/>
<path d="M112.53,211.01c1.46-0.2,2.84-0.39,4.35-0.6c-0.46,6.17-0.92,12.29-1.38,18.48c-1.6,0.13-3.16,0.26-4.84,0.4
	C111.29,223.16,111.91,217.13,112.53,211.01z"/>
<path d="M145.01,233.48c0.3-0.06,0.56-0.13,0.83-0.15c0.79-0.08,1.25,0.31,1.29,1.11c0.01,0.3-0.02,0.6-0.07,0.9
	c-0.13,0.8,0.27,1.33,1.09,1.27c0.46-0.04,0.93-0.21,1.36-0.39c0.43-0.18,0.83-0.45,1.32-0.72c0.2,0.4,0.43,0.77,0.56,1.16
	c0.28,0.84-0.05,1.52-0.91,1.76c-0.5,0.14-1.04,0.17-1.56,0.18c-0.46,0.01-0.88,0.01-1.29,0.29c-0.24,0.17-0.55,0.25-0.84,0.32
	c-0.9,0.23-1.63-0.07-2.19-0.8c-0.14-0.18-0.25-0.37-0.38-0.58c-0.59,0.17-1.15,0.36-1.73,0.5c-0.34,0.08-0.7,0.11-1.04,0.1
	c-0.97-0.03-1.66-0.5-1.92-1.41c-0.22-0.77-0.39-1.56-0.45-2.35c-0.07-0.98,0.42-1.76,1.26-2.24c1.02-0.58,2.13-0.87,3.32-0.76
	c0.54,0.05,0.85,0.4,1.04,0.87C144.83,232.81,144.89,233.11,145.01,233.48z M144.53,237.15c0.05,0.12,0.11,0.23,0.16,0.34
	c0.59,1.29,1.42,1.58,2.68,0.96c0.07-0.03,0.14-0.06,0.2-0.11c0.34-0.26,0.7-0.3,1.13-0.27c0.52,0.03,1.06-0.02,1.57-0.13
	c0.64-0.14,0.83-0.57,0.62-1.2c-0.06-0.16-0.15-0.31-0.25-0.51c-0.27,0.14-0.51,0.27-0.75,0.39c-0.61,0.3-1.24,0.54-1.95,0.49
	c-1.03-0.08-1.6-0.85-1.38-1.85c0.05-0.24,0.09-0.5,0.08-0.74c-0.01-0.53-0.24-0.72-0.77-0.65c-0.27,0.03-0.53,0.14-0.8,0.21
	c-0.18,0.05-0.37,0.11-0.61,0.18c-0.01-0.29-0.02-0.51-0.03-0.73c-0.07-1.17-0.65-1.64-1.79-1.37c-0.58,0.14-1.16,0.33-1.71,0.57
	c-1.02,0.45-1.49,1.36-1.3,2.46c0.07,0.39,0.21,0.78,0.27,1.17c0.21,1.4,1.2,1.77,2.29,1.52
	C142.94,237.69,143.69,237.41,144.53,237.15z"/>
<path d="M151.05,226.24c-0.86-2.13-2.6-3.13-4.63-3.78c-0.98-0.31-1.96-0.61-2.9-1.01c-0.45-0.19-0.85-0.53-1.2-0.88
	c-0.55-0.55-0.74-1.26-0.52-2.01c0.29-0.98,0.77-1.82,1.88-2.03c0.74-0.14,1.48-0.33,2.22-0.33c1.47,0,2.65,0.68,3.54,1.85
	c0.89,1.16,1.39,2.5,1.66,3.92c0.23,1.23,0.33,2.48,0.47,3.73C151.6,226.01,151.6,226.33,151.05,226.24z M150.85,224.74
	c0.05-0.02,0.09-0.05,0.14-0.07c-0.04-0.4-0.08-0.79-0.13-1.19c-0.22-1.55-0.58-3.06-1.37-4.43c-1.49-2.59-3.81-2.74-6.18-1.84
	c-0.09,0.03-0.18,0.1-0.25,0.16c-1.14,0.99-1.1,2.5,0.17,3.31c0.71,0.45,1.53,0.72,2.32,1.02c0.77,0.29,1.59,0.46,2.35,0.78
	C149.07,222.96,150.07,223.7,150.85,224.74z"/>
<path d="M148.48,229.62c-1.09-0.77-1.89-0.2-2.66,0.44c-0.84-0.29-1.61-0.66-2.25-1.24c-0.93-0.84-0.98-1.84-0.14-2.77
	c1.18-1.32,3.08-1.23,4.13,0.2C148.25,227.22,148.48,228.33,148.48,229.62z M147.86,228.7c-0.07-0.87-0.32-1.6-0.71-2.12
	c-0.94-1.26-2.56-1.27-3.49-0.01c-0.45,0.61-0.47,1.18,0.09,1.68c0.5,0.44,1.1,0.76,1.69,1.09c0.13,0.07,0.4,0.01,0.54-0.09
	C146.54,228.88,147.14,228.68,147.86,228.7z"/>
<path d="M153.8,226.89c0.79-0.3,0.86-0.91,0.81-1.65c0.45-0.19,0.89-0.42,1.36-0.57c0.61-0.2,1.11-0.03,1.41,0.39
	c0.35,0.49,0.4,1.33,0.09,1.77c-0.47,0.67-1.12,0.98-1.94,0.86C154.93,227.6,154.39,227.36,153.8,226.89z M154.87,227
	c0.33,0.06,0.64,0.14,0.95,0.17c0.52,0.04,0.92-0.19,1.21-0.61c0.25-0.35,0.15-1.05-0.17-1.3c-0.44-0.35-1.62,0.07-1.74,0.62
	C155.05,226.21,154.97,226.55,154.87,227z"/>
<path d="M140.54,228.07c-0.2,0.41-0.35,0.78-0.55,1.12c-0.37,0.62-0.87,0.9-1.34,0.74c-0.63-0.21-1.09-0.61-1.22-1.3
	c-0.15-0.82,0.14-1.41,0.86-1.83c0.51-0.3,1.08-0.42,1.86-0.38C139.85,227.03,139.96,227.57,140.54,228.07z M139.27,226.94
	c-0.3,0.15-0.64,0.26-0.91,0.45c-0.58,0.41-0.62,1.19-0.12,1.7c0.35,0.36,0.68,0.43,0.99,0.21c0.37-0.26,0.69-0.99,0.56-1.29
	C139.63,227.67,139.47,227.34,139.27,226.94z"/>
<path d="M120.74,115c1.37-0.13,2.76-0.25,4.25-0.39c-0.23,6.16-0.46,12.25-0.69,18.38c-1.6,0.3-3.15,0.58-4.7,0.87
	C119.45,133.29,120.49,116.05,120.74,115z"/>
<path class="st0" d="M144.53,237.15c-0.84,0.26-1.59,0.53-2.37,0.71c-1.09,0.25-2.08-0.11-2.29-1.52c-0.06-0.4-0.2-0.78-0.27-1.17
	c-0.19-1.1,0.28-2.01,1.3-2.46c0.55-0.24,1.13-0.43,1.71-0.57c1.14-0.27,1.73,0.2,1.79,1.37c0.01,0.22,0.02,0.44,0.03,0.73
	c0.24-0.07,0.43-0.13,0.61-0.18c0.27-0.07,0.53-0.18,0.8-0.21c0.53-0.07,0.76,0.13,0.77,0.65c0.01,0.25-0.03,0.5-0.08,0.74
	c-0.22,1,0.36,1.77,1.38,1.85c0.71,0.06,1.33-0.19,1.95-0.49c0.24-0.12,0.48-0.25,0.75-0.39c0.1,0.2,0.19,0.35,0.25,0.51
	c0.22,0.63,0.02,1.06-0.62,1.2c-0.51,0.11-1.05,0.16-1.57,0.13c-0.43-0.03-0.79,0.01-1.13,0.27c-0.06,0.05-0.13,0.07-0.2,0.11
	c-1.26,0.63-2.09,0.33-2.68-0.96C144.63,237.38,144.58,237.27,144.53,237.15z"/>
<path class="st0" d="M150.85,224.74c-0.77-1.04-1.78-1.77-2.95-2.26c-0.76-0.32-1.58-0.49-2.35-0.78c-0.79-0.3-1.62-0.57-2.32-1.02
	c-1.27-0.81-1.31-2.32-0.17-3.31c0.07-0.06,0.16-0.13,0.25-0.16c2.37-0.9,4.69-0.75,6.18,1.84c0.79,1.37,1.15,2.88,1.37,4.43
	c0.06,0.39,0.09,0.79,0.13,1.19C150.94,224.69,150.89,224.71,150.85,224.74z"/>
<path class="st0" d="M147.86,228.7c-0.72-0.03-1.32,0.18-1.87,0.56c-0.14,0.1-0.41,0.16-0.54,0.09c-0.58-0.33-1.19-0.65-1.69-1.09
	c-0.56-0.5-0.54-1.08-0.09-1.68c0.93-1.26,2.55-1.26,3.49,0.01C147.54,227.1,147.79,227.83,147.86,228.7z"/>
<path class="st0" d="M154.87,227c0.1-0.45,0.18-0.79,0.25-1.13c0.12-0.55,1.3-0.97,1.74-0.62c0.32,0.26,0.42,0.95,0.17,1.3
	c-0.29,0.42-0.69,0.65-1.21,0.61C155.5,227.14,155.19,227.06,154.87,227z"/>
<path class="st0" d="M139.27,226.94c0.2,0.41,0.36,0.74,0.52,1.07c0.14,0.3-0.18,1.03-0.56,1.29c-0.32,0.22-0.65,0.15-0.99-0.21
	c-0.5-0.51-0.46-1.29,0.12-1.7C138.63,227.19,138.97,227.08,139.27,226.94z"/>
</svg>
